# xmcd
#
# Track frame offsets:
#       150
#       12116
#       31688
#       45330
#       59320
#       75465
#
# Disc length: 1198 seconds
#
# Revision: 1
# Processed by: cddbd v1.4PL0 Copyright (c) Steve Scherf et al.
# Submitted via: MusiCat 1.1
#
DISCID=3304ac06
DTITLE=Countrygrass - Countrygrass
DYEAR=2001
DGENRE=
TTITLE0=I'm not comin'home anymore
TTITLE1=Thoughts of Life
TTITLE2=Workin'on the chaingang
TTITLE3=My Sweetheart is gone
TTITLE4=Sail our l,oveboat
TTITLE5=When my time has come
EXTD=2001\n\n\nsubmitted by Stamppot
EXTT0=
EXTT1=
EXTT2=
EXTT3=
EXTT4=
EXTT5=
PLAYORDER=
